# xmcd
#
# Track frame offsets: 
#        182
#        17677
#        30062
#        49335
#        71955
#        84997
#        96062
#        114965
#        149137
#        164242
#        186222
#
# Disc length: 2779 seconds
#
# Revision: 1
# Processed by: cddbd v1.5.2PL0 Copyright (c) Steve Scherf et al.
# Submitted via: ExactAudioCopyFreeDBPlugin 1.0
#
DISCID=950ad90b
DTITLE=Tutu Jones - I'm For Real
DYEAR=1994
DGENRE=Blues
TTITLE0=Sweet Woman
TTITLE1=I'm For Real
TTITLE2=My Own Fault
TTITLE3=Excited
TTITLE4=(Do You Love) Steppin' On Me
TTITLE5=She's My Woman
TTITLE6=I Still Love You
TTITLE7=Too Blues To Be True
TTITLE8=Stubborn Woman
TTITLE9=I'm Not Your Fool
TTITLE10=Outstanding
EXTD=
EXTT0=
EXTT1=
EXTT2=
EXTT3=
EXTT4=
EXTT5=
EXTT6=
EXTT7=
EXTT8=
EXTT9=
EXTT10=
PLAYORDER=
